<svg width="696" height="468" viewBox="0 0 696 468" fill="none" xmlns="http://www.w3.org/2000/svg">
<g clip-path="url(#clip0_3294_54643)">
<path d="M202.62 234C175.77 234 154 255.73 154 282.11V379.89C154.005 386.213 155.256 392.473 157.68 398.313C160.105 404.153 163.656 409.458 168.131 413.925C172.606 418.393 177.917 421.935 183.761 424.35C189.605 426.765 195.867 428.005 202.19 428H299.81C306.163 427.994 312.453 426.734 318.317 424.291C324.182 421.848 329.506 418.271 333.984 413.764C338.462 409.257 342.005 403.91 344.41 398.03C346.816 392.15 348.036 385.853 348 379.5V379.11C347.964 372.757 349.184 366.459 351.59 360.579C353.995 354.699 357.538 349.352 362.016 344.845C366.494 340.339 371.818 336.761 377.683 334.318C383.547 331.875 389.837 330.615 396.19 330.61H493.81C500.133 330.615 506.395 329.375 512.239 326.96C518.083 324.545 523.394 321.003 527.869 316.535C532.344 312.068 535.895 306.763 538.32 300.923C540.744 295.083 541.995 288.823 542 282.5V281.72C541.983 275.363 540.71 269.073 538.255 263.211C535.799 257.348 532.209 252.029 527.691 247.558C523.173 243.087 517.815 239.553 511.927 237.16C506.039 234.766 499.736 233.56 493.38 233.61H493C480.128 233.615 467.781 228.509 458.671 219.415C449.562 210.321 444.436 197.982 444.42 185.11L444.81 137.39C444.674 111.768 434.427 87.2359 416.298 69.13C398.168 51.024 373.623 40.8087 348.001 40.7059C322.379 40.6031 297.753 50.6211 279.479 68.581C261.205 86.5408 250.761 110.99 250.42 136.61V185.5C251.19 212.66 229.43 234 202.62 234Z" fill="#00684A"/>
<path d="M305.12 223.16C315.463 223.184 325.393 219.098 332.723 211.801C340.054 204.504 344.186 194.593 344.21 184.25C344.234 173.906 340.148 163.977 332.851 156.646C325.554 149.316 315.643 145.184 305.3 145.16C303.804 145.132 302.309 145.188 300.82 145.33H300.3L300.13 145.16L299.96 144.81C294.239 134.75 285.349 126.867 274.677 122.391C264.005 117.915 252.151 117.097 240.966 120.066C229.781 123.035 219.893 129.624 212.846 138.803C205.799 147.983 201.988 159.237 202.01 170.81V171.81H201.01C194.21 171.831 187.695 174.543 182.889 179.353C178.082 184.163 175.376 190.68 175.36 197.48V198.48H174.5C171.977 198.344 169.474 198.979 167.321 200.301C165.169 201.623 163.47 203.569 162.45 205.88C161.767 207.429 161.415 209.102 161.415 210.795C161.415 212.487 161.767 214.161 162.45 215.71C163.165 217.255 164.158 218.654 165.38 219.84C166.566 221.057 168.047 221.946 169.68 222.42C171.278 223.004 172.983 223.239 174.68 223.11L305.12 223.16Z" fill="black" stroke="black" stroke-miterlimit="10"/>
<path d="M469.73 239C467.526 231.486 463.168 224.783 457.195 219.719C451.222 214.655 443.896 211.453 436.123 210.509C428.35 209.564 420.47 210.918 413.458 214.403C406.447 217.889 400.61 223.353 396.67 230.12C395.502 229.984 394.326 229.914 393.15 229.91C385.237 230.054 377.697 233.298 372.151 238.945C366.606 244.592 363.5 252.19 363.5 260.105C363.5 268.019 366.606 275.617 372.151 281.264C377.697 286.911 385.237 290.156 393.15 290.3H469.58C476.383 290.319 482.915 287.636 487.739 282.84C492.564 278.044 495.285 271.527 495.305 264.725C495.325 257.922 492.642 251.39 487.845 246.565C483.049 241.741 476.533 239.02 469.73 239Z" fill="black" stroke="black" stroke-miterlimit="10"/>
<path d="M469.73 229.33C467.526 221.816 463.168 215.113 457.195 210.049C451.222 204.986 443.896 201.783 436.123 200.839C428.35 199.894 420.47 201.248 413.458 204.733C406.447 208.219 400.61 213.683 396.67 220.45C395.502 220.314 394.326 220.244 393.15 220.24C389.185 220.24 385.26 221.021 381.597 222.538C377.934 224.055 374.606 226.279 371.802 229.082C368.999 231.886 366.775 235.214 365.258 238.876C363.741 242.539 362.96 246.465 362.96 250.43C362.96 254.394 363.741 258.32 365.258 261.983C366.775 265.646 368.999 268.974 371.802 271.777C374.606 274.581 377.934 276.804 381.597 278.322C385.26 279.839 389.185 280.62 393.15 280.62H469.58C476.295 280.508 482.699 277.767 487.415 272.986C492.131 268.205 494.784 261.764 494.804 255.048C494.824 248.332 492.208 241.876 487.52 237.068C482.832 232.259 476.444 229.48 469.73 229.33Z" fill="white" stroke="black" stroke-linecap="round" stroke-linejoin="round"/>
<path d="M305.12 212.11C315.47 212.134 325.406 208.045 332.741 200.743C340.077 193.442 344.211 183.525 344.235 173.175C344.259 162.825 340.17 152.889 332.868 145.554C325.567 138.218 315.65 134.084 305.3 134.06C303.805 134.032 302.309 134.088 300.82 134.23H300.3L300.13 134.06L299.96 133.72C294.239 123.66 285.349 115.777 274.677 111.301C264.005 106.825 252.152 106.007 240.966 108.977C229.781 111.946 219.893 118.534 212.846 127.714C205.799 136.893 201.988 148.147 202.01 159.72V160.72H201.01C194.209 160.738 187.693 163.45 182.886 168.26C178.079 173.071 175.373 179.589 175.36 186.39V187.39H174.5C171.977 187.259 169.474 187.898 167.323 189.221C165.171 190.544 163.472 192.49 162.45 194.8C161.767 196.347 161.415 198.019 161.415 199.71C161.415 201.401 161.767 203.073 162.45 204.62C163.163 206.166 164.156 207.566 165.38 208.75C166.568 209.967 168.048 210.859 169.68 211.34C171.281 211.914 172.983 212.149 174.68 212.03L305.12 212.11Z" fill="white" stroke="black" stroke-linecap="round" stroke-linejoin="round"/>
<path d="M383.07 159.64C383.071 158.864 382.92 158.095 382.624 157.377C382.328 156.66 381.894 156.007 381.346 155.458C380.798 154.908 380.148 154.472 379.431 154.173C378.715 153.875 377.946 153.721 377.17 153.72H376.9H364.29V158.52H310.29V153.64H294.45C292.884 153.64 291.383 154.261 290.275 155.367C289.167 156.473 288.543 157.974 288.54 159.54L288.31 308.41C288.306 309.186 288.456 309.955 288.75 310.673C289.044 311.391 289.477 312.044 290.025 312.594C290.572 313.144 291.223 313.581 291.939 313.878C292.656 314.176 293.424 314.33 294.2 314.33L376.66 314.46H376.94C378.506 314.46 380.008 313.838 381.116 312.732C382.224 311.626 382.847 310.125 382.85 308.56L383.07 159.64Z" fill="black" stroke="black" stroke-linecap="round" stroke-linejoin="round"/>
<path d="M384.78 263.79L384.49 264.24L384.58 263.84L384.78 263.79Z" fill="#00ED64"/>
<path d="M384.78 263.79H384.58L384.49 264.19L384.78 263.74V263.79Z" fill="black"/>
<path d="M378 159.64C378.004 158.864 377.855 158.095 377.56 157.376C377.266 156.658 376.833 156.006 376.285 155.455C375.738 154.905 375.087 154.469 374.371 154.171C373.654 153.873 372.886 153.72 372.11 153.72H371.83H359.22V158.52H305.22V153.64H289.38C287.813 153.64 286.311 154.261 285.201 155.367C284.091 156.472 283.465 157.973 283.46 159.54L283.23 308.41C283.229 309.186 283.38 309.955 283.676 310.672C283.972 311.39 284.406 312.042 284.954 312.592C285.502 313.141 286.153 313.578 286.869 313.876C287.586 314.174 288.354 314.328 289.13 314.33L371.59 314.46H371.87C373.435 314.46 374.935 313.838 376.042 312.732C377.148 311.625 377.77 310.124 377.77 308.56L378 159.64Z" fill="white" stroke="black" stroke-linecap="round" stroke-linejoin="round"/>
<path d="M370.72 164.75H290.53C288.321 164.75 286.53 166.541 286.53 168.75V246.09C286.53 248.299 288.321 250.09 290.53 250.09H370.72C372.929 250.09 374.72 248.299 374.72 246.09V168.75C374.72 166.541 372.929 164.75 370.72 164.75Z" fill="#00ED64" stroke="black" stroke-miterlimit="10"/>
<path d="M335.964 258.578L323.004 258.557C320.651 258.554 318.741 260.458 318.737 262.811L318.737 262.821C318.733 265.173 320.638 267.084 322.99 267.087L335.95 267.108C338.303 267.112 340.213 265.207 340.217 262.855L340.217 262.845C340.221 260.492 338.316 258.582 335.964 258.578Z" fill="white" stroke="black" stroke-linecap="round" stroke-linejoin="round"/>
<path d="M335.973 271.807L323.013 271.787C320.66 271.783 318.75 273.688 318.746 276.04L318.746 276.05C318.743 278.403 320.647 280.313 323 280.317L335.96 280.337C338.312 280.341 340.223 278.437 340.226 276.084L340.226 276.074C340.23 273.721 338.326 271.811 335.973 271.807Z" fill="white" stroke="black" stroke-linecap="round" stroke-linejoin="round"/>
<path d="M335.972 285.038L323.012 285.017C320.659 285.014 318.749 286.918 318.745 289.271L318.745 289.281C318.742 291.633 320.646 293.544 322.999 293.547L335.959 293.568C338.311 293.571 340.222 291.667 340.225 289.314L340.225 289.304C340.229 286.952 338.325 285.041 335.972 285.038Z" fill="white" stroke="black" stroke-linecap="round" stroke-linejoin="round"/>
<path d="M307.723 258.583L294.763 258.562C292.411 258.559 290.5 260.463 290.497 262.816L290.497 262.826C290.493 265.178 292.397 267.089 294.75 267.092L307.71 267.113C310.063 267.116 311.973 265.212 311.977 262.859L311.977 262.849C311.98 260.497 310.076 258.586 307.723 258.583Z" fill="white" stroke="black" stroke-linecap="round" stroke-linejoin="round"/>
<path d="M307.733 271.773L294.773 271.753C292.42 271.749 290.51 273.653 290.506 276.006L290.506 276.016C290.502 278.369 292.407 280.279 294.759 280.283L307.719 280.303C310.072 280.307 311.982 278.403 311.986 276.05L311.986 276.04C311.99 273.687 310.085 271.777 307.733 271.773Z" fill="white" stroke="black" stroke-linecap="round" stroke-linejoin="round"/>
<path d="M307.732 285.003L294.772 284.982C292.419 284.979 290.509 286.883 290.506 289.236L290.505 289.246C290.502 291.598 292.406 293.509 294.759 293.512L307.719 293.533C310.072 293.536 311.982 291.632 311.985 289.279L311.985 289.269C311.989 286.917 310.085 285.006 307.732 285.003Z" fill="white" stroke="black" stroke-linecap="round" stroke-linejoin="round"/>
<path d="M307.731 298.233L294.771 298.213C292.418 298.209 290.508 300.113 290.505 302.466L290.505 302.476C290.501 304.829 292.405 306.739 294.758 306.743L307.718 306.763C310.071 306.767 311.981 304.863 311.984 302.51L311.984 302.5C311.988 300.147 310.084 298.237 307.731 298.233Z" fill="white" stroke="black" stroke-linecap="round" stroke-linejoin="round"/>
<path d="M364.263 258.582L351.303 258.561C348.951 258.558 347.04 260.462 347.037 262.815L347.037 262.825C347.033 265.177 348.937 267.088 351.29 267.091L364.25 267.112C366.603 267.115 368.513 265.211 368.517 262.858L368.517 262.848C368.52 260.496 366.616 258.585 364.263 258.582Z" fill="white" stroke="black" stroke-linecap="round" stroke-linejoin="round"/>
<path d="M364.273 271.772L351.313 271.752C348.96 271.748 347.05 273.652 347.046 276.005L347.046 276.015C347.042 278.368 348.947 280.278 351.299 280.282L364.259 280.302C366.612 280.306 368.522 278.402 368.526 276.049L368.526 276.039C368.53 273.686 366.625 271.776 364.273 271.772Z" fill="white" stroke="black" stroke-linecap="round" stroke-linejoin="round"/>
<path d="M364.272 285.002L351.312 284.981C348.959 284.978 347.049 286.882 347.045 289.235L347.045 289.245C347.041 291.597 348.946 293.508 351.298 293.511L364.258 293.532C366.611 293.535 368.521 291.631 368.525 289.278L368.525 289.268C368.529 286.916 366.624 285.005 364.272 285.002Z" fill="white" stroke="black" stroke-linecap="round" stroke-linejoin="round"/>
<path d="M364.271 298.232L351.311 298.212C348.959 298.208 347.048 300.112 347.045 302.465L347.045 302.475C347.041 304.828 348.945 306.738 351.298 306.742L364.258 306.762C366.611 306.766 368.521 304.862 368.525 302.509L368.525 302.499C368.528 300.146 366.624 298.236 364.271 298.232Z" fill="white" stroke="black" stroke-linecap="round" stroke-linejoin="round"/>
<path d="M335.971 298.267L323.011 298.247C320.658 298.243 318.748 300.148 318.744 302.5L318.744 302.51C318.741 304.863 320.645 306.773 322.998 306.777L335.958 306.797C338.31 306.801 340.221 304.897 340.224 302.544L340.224 302.534C340.228 300.181 338.324 298.271 335.971 298.267Z" fill="white" stroke="black" stroke-linecap="round" stroke-linejoin="round"/>
<path d="M361.37 158.78V159.19C361.37 159.54 361.231 159.876 360.984 160.124C360.736 160.371 360.4 160.51 360.05 160.51L302.79 160.43C302.439 160.428 302.103 160.286 301.856 160.037C301.609 159.788 301.47 159.451 301.47 159.1V158.68C301.47 158.33 301.609 157.995 301.857 157.747C302.104 157.499 302.44 157.36 302.79 157.36H305.19V158.5H359.19V157.45H360.06C360.409 157.456 360.743 157.598 360.988 157.847C361.233 158.096 361.37 158.431 361.37 158.78Z" fill="black" stroke="black" stroke-linecap="round" stroke-linejoin="round"/>
<path d="M318.19 208.08L327.69 220.92L346.37 189.08" stroke="black" stroke-linecap="round" stroke-linejoin="round"/>
<path d="M369.71 84.3005V133.08C369.709 133.412 369.642 133.741 369.513 134.046C369.385 134.352 369.197 134.63 368.961 134.863C368.725 135.096 368.446 135.281 368.138 135.405C367.831 135.53 367.502 135.593 367.17 135.59H366.86L359.18 135.54V117.08C359.18 116.749 359.245 116.42 359.373 116.114C359.5 115.807 359.687 115.529 359.922 115.295C360.157 115.061 360.436 114.875 360.743 114.749C361.049 114.623 361.378 114.559 361.71 114.56H315.71V82.7305L318.35 84.3005L321.9 82.7305L325.56 84.3005L329.46 82.7305L332.79 84.3005L336.68 82.7305L340.46 84.3005L343.78 82.7305L347.33 84.3005L350.33 82.7305L354.11 84.3005L357.43 82.7305L361.21 84.3005L365.41 82.7305L369.71 84.3005Z" fill="white" stroke="black" stroke-linecap="round" stroke-linejoin="round"/>
<path d="M366.86 135.59H359.18V117.08C359.18 116.748 359.246 116.419 359.373 116.113C359.5 115.807 359.687 115.528 359.922 115.294C360.157 115.06 360.436 114.875 360.743 114.749C361.05 114.622 361.378 114.558 361.71 114.56H362C362.669 114.56 363.31 114.825 363.782 115.298C364.255 115.77 364.52 116.411 364.52 117.08V133.16C364.52 133.789 364.763 134.394 365.2 134.847C365.636 135.3 366.231 135.566 366.86 135.59Z" fill="black" stroke="black" stroke-linecap="round" stroke-linejoin="round"/>
<path d="M361.71 114.56C361.378 114.558 361.05 114.622 360.743 114.749C360.436 114.875 360.157 115.06 359.922 115.294C359.687 115.528 359.5 115.807 359.373 116.113C359.246 116.419 359.18 116.748 359.18 117.08V158.5H305.18V117.08C305.179 116.749 305.243 116.422 305.368 116.116C305.494 115.81 305.679 115.532 305.912 115.298C306.145 115.064 306.422 114.878 306.727 114.752C307.033 114.625 307.36 114.56 307.69 114.56H361.71Z" fill="white" stroke="black" stroke-linecap="round" stroke-linejoin="round"/>
<path d="M429.09 151.78C434.961 151.78 439.72 147.02 439.72 141.15C439.72 135.279 434.961 130.52 429.09 130.52C423.219 130.52 418.46 135.279 418.46 141.15C418.46 147.02 423.219 151.78 429.09 151.78Z" fill="white" stroke="black" stroke-linecap="round" stroke-linejoin="round"/>
<path d="M422.74 149.68C422.74 149.68 436.08 145.05 437.88 135.18C440.21 138.18 441.16 145.26 436.19 149.06C431.22 152.86 426.35 151.62 422.74 149.68Z" fill="black" stroke="black" stroke-linecap="round" stroke-linejoin="round"/>
<path d="M429.1 159.85V189.56" stroke="black" stroke-linecap="round" stroke-linejoin="round"/>
<path d="M432.1 294.29L431.96 294.19L431.81 294.08L431.73 294.02L431.63 293.95C426.43 285.15 427.25 280.61 426.86 276.41C426.625 273.416 425.372 270.593 423.31 268.41C422.472 267.408 421.455 266.57 420.31 265.94C423.46 261.8 429.31 259.16 431.2 258.38L431.82 258.14L431.69 257.96C432.76 258.96 433.75 260.01 434.69 261.01C439.17 266.01 444.04 268.56 445.01 275.18C447.1 289.32 448.56 304.88 450.13 319.76C451.86 336.04 453.47 343.76 456.31 351.08C452.118 351.81 448.044 353.105 444.2 354.93C437.102 358.207 430.546 362.551 424.76 367.81C422.469 363.401 419.423 359.428 415.76 356.07C405.84 347 399.71 321.52 400 307.5C400.23 296.09 401.79 290.69 403.47 286.31L403.59 286.14C403.69 287.14 403.76 288.08 403.83 289.04C404.37 297.09 403.98 304.51 405.61 312.31C405.67 312.61 405.72 312.9 405.78 313.2C405.84 313.5 405.95 313.99 406.04 314.39C406.689 317.367 407.616 320.277 408.81 323.08C409.715 325.224 410.774 327.3 411.98 329.29" fill="#00684A"/>
<path d="M432.1 294.29L431.96 294.19L431.81 294.08L431.73 294.02L431.63 293.95C426.43 285.15 427.25 280.61 426.86 276.41C426.625 273.416 425.372 270.593 423.31 268.41C422.472 267.408 421.455 266.57 420.31 265.94C423.46 261.8 429.31 259.16 431.2 258.38L431.82 258.14L431.69 257.96C432.76 258.96 433.75 260.01 434.69 261.01C439.17 266.01 444.04 268.56 445.01 275.18C447.1 289.32 448.56 304.88 450.13 319.76C451.86 336.04 453.47 343.76 456.31 351.08C452.118 351.81 448.044 353.105 444.2 354.93C437.102 358.207 430.546 362.551 424.76 367.81C422.469 363.401 419.423 359.428 415.76 356.07C405.84 347 399.71 321.52 400 307.5C400.23 296.09 401.79 290.69 403.47 286.31L403.59 286.14C403.69 287.14 403.76 288.08 403.83 289.04C404.37 297.09 403.98 304.51 405.61 312.31C405.67 312.61 405.72 312.9 405.78 313.2C405.84 313.5 405.95 313.99 406.04 314.39C406.689 317.367 407.616 320.277 408.81 323.08V323.08C409.715 325.224 410.774 327.3 411.98 329.29" stroke="black" stroke-linecap="round" stroke-linejoin="round"/>
<path d="M401.67 288.51C398.46 292.86 395.25 296.23 392.67 297.62C390.26 298.92 386.25 298.38 385.97 294.88C388.91 292.34 392.23 288.02 395.43 282.82C396.35 285.91 398.47 288.5 401.67 288.51Z" fill="#00684A" stroke="black" stroke-linecap="round" stroke-linejoin="round"/>
<path d="M395.41 282.82C392.21 288.02 388.89 292.34 385.95 294.88C385.354 295.401 384.719 295.876 384.05 296.3C383.39 296.699 382.666 296.983 381.91 297.14C380.504 297.472 379.025 297.28 377.75 296.6L377.48 296.42C377.36 296.34 377.25 296.25 377.14 296.16V296.11H377.07C375.77 294.95 375.16 292.85 376.17 289.57C376.597 289.598 377.026 289.581 377.45 289.52L377.72 289.47C378.137 289.391 378.543 289.264 378.93 289.09C379.21 288.96 379.5 288.81 379.79 288.64C380.522 288.215 381.223 287.74 381.89 287.22C383.08 286.276 384.209 285.257 385.27 284.17C387.176 282.23 388.963 280.176 390.62 278.02C390.678 279.271 391.102 280.477 391.84 281.49C392.264 282.007 392.818 282.403 393.445 282.637C394.073 282.871 394.751 282.934 395.41 282.82Z" fill="#00684A" stroke="black" stroke-linecap="round" stroke-linejoin="round"/>
<path d="M390.66 278.05C389.003 280.206 387.216 282.26 385.31 284.2C384.249 285.287 383.12 286.306 381.93 287.25C381.263 287.771 380.561 288.245 379.83 288.67C379.54 288.84 379.25 288.99 378.97 289.12C378.583 289.294 378.177 289.422 377.76 289.5L377.49 289.55C377.066 289.611 376.637 289.628 376.21 289.6C373.36 289.41 370.78 287.12 373.44 282L377.51 275.47L377.78 275.03L379.43 272.38L381.95 268.33L383.01 266.63L384.34 271.74L384.76 273.37C384.76 273.37 385.62 277.37 388.48 278.12C389.2 278.29 389.952 278.266 390.66 278.05Z" fill="#00684A" stroke="black" stroke-linecap="round" stroke-linejoin="round"/>
<path d="M401.15 273.58L400.91 272.76L400.73 272.15C399.476 272.54 398.14 272.588 396.86 272.29C396.288 272.167 395.734 271.972 395.21 271.71C393.732 270.997 392.529 269.816 391.79 268.35L388.93 262.74L388.83 262.55L388.7 262.28L387.36 259.65L387 259L383.17 251.47L383.04 251.21L382.53 250.21L381.96 249.12L379.96 245.22L379.84 244.98L378.66 242.67L377.8 240.97L377.52 240.44L374.57 234.64L371.64 228.88L365.87 217.57L359.46 220.22L345.22 226.12C344.34 226.49 343.54 227.029 342.868 227.708C342.196 228.386 341.664 229.19 341.303 230.074C340.942 230.958 340.758 231.905 340.763 232.86C340.767 233.815 340.96 234.76 341.33 235.64L347.41 250.13L350.96 258.61L352.66 262.61L351.66 263.04C349.72 264.09 348.72 265.23 348.37 266.33C347.58 268.74 349.93 270.92 352.18 271.33C353.544 271.508 354.926 271.508 356.29 271.33L356.49 271.81L358.94 277.65L357.27 280.34L354.34 285.04L353.21 286.86C351.26 290.61 352.34 292.74 354.21 293.57C354.724 293.792 355.272 293.924 355.83 293.96C355.319 295.339 355.225 296.838 355.56 298.27C356.56 301.55 360.69 301.75 363.16 300.22C363.784 299.819 364.379 299.375 364.94 298.89C365.001 299.757 365.392 300.567 366.032 301.155C366.671 301.742 367.512 302.063 368.38 302.05C369.354 302.113 370.327 301.906 371.19 301.45C373.453 300.036 375.452 298.239 377.1 296.14C375.8 294.98 375.19 292.88 376.2 289.6C373.35 289.41 370.77 287.12 373.43 282L377.5 275.47L377.77 275.03L379.42 272.38L381.94 268.33L383 266.63L384.33 271.74L384.75 273.37C384.75 273.37 385.61 277.37 388.47 278.12C389.189 278.294 389.942 278.273 390.65 278.06C390.708 279.312 391.132 280.518 391.87 281.53C392.293 282.035 392.84 282.42 393.458 282.648C394.075 282.876 394.741 282.939 395.39 282.83C396.33 285.92 398.45 288.51 401.65 288.52C402.25 287.71 402.85 286.86 403.44 285.99C403.08 281.789 402.314 277.633 401.15 273.58Z" fill="black" stroke="black" stroke-linecap="round" stroke-linejoin="round"/>
<path d="M509.48 412.66L432.99 412.73L417.93 375.2C419.924 372.496 422.192 370.006 424.7 367.77C430.486 362.511 437.042 358.168 444.14 354.89C447.982 353.051 452.056 351.743 456.25 351C467.88 349 475.45 352.71 475.45 352.71L509.48 412.66Z" fill="#B1FF05" stroke="black" stroke-linecap="round" stroke-linejoin="round"/>
<path d="M385.31 263.57C385.31 263.57 385.31 263.64 384.78 263.79H384.58C383.68 264.04 382.81 264.26 381.96 264.45C381.11 264.64 380.12 264.85 379.25 265C378.75 265.09 378.25 265.16 377.8 265.22H377.52C375.804 265.481 374.06 265.498 372.34 265.27C371.536 265.129 370.773 264.812 370.106 264.342C369.438 263.872 368.883 263.26 368.48 262.55C368.168 261.951 368.039 261.273 368.11 260.6C368.27 259.24 369.31 257.76 371.78 256.43L375.21 254.91L377.54 253.91L377.82 253.78L378.96 253.28L379.82 252.9C380.295 252.886 380.768 252.954 381.22 253.1C381.479 253.178 381.732 253.272 381.98 253.38C383.369 254.042 384.529 255.105 385.31 256.43C385.933 257.377 386.298 258.469 386.37 259.6C386.404 260.222 386.347 260.845 386.2 261.45C386.033 262.205 385.731 262.923 385.31 263.57Z" fill="#00684A" stroke="black" stroke-linecap="round" stroke-linejoin="round"/>
<path d="M426.88 276.38C427.27 280.58 426.45 285.12 431.65 293.92C430.965 293.279 430.244 292.678 429.49 292.12C425.49 288.22 421.96 281.65 418.49 274.48C417.08 271.48 415.67 268.48 414.26 265.41L415 265L417.13 263.91L430.21 257.24C430.375 257.16 430.535 257.07 430.69 256.97L430.86 256.86L431.66 257.86L431.79 258.04L431.17 258.28C429.27 259.06 423.43 261.7 420.28 265.84C421.424 266.47 422.442 267.308 423.28 268.31C425.375 270.505 426.647 273.356 426.88 276.38Z" fill="black" stroke="black" stroke-linecap="round" stroke-linejoin="round"/>
<path d="M230.54 247.83V348.08C230.54 351.464 231.884 354.71 234.277 357.103C236.67 359.496 239.916 360.84 243.3 360.84H317.86C321.244 360.84 324.49 359.496 326.883 357.103C329.276 354.71 330.62 351.464 330.62 348.08V339" stroke="black" stroke-miterlimit="10" stroke-dasharray="2 2"/>
<path d="M219.81 245.61L230.58 235.92L240.98 245.61" stroke="black" stroke-linecap="round" stroke-linejoin="round"/>
<path d="M320.03 336.81L330.81 327.12L341.21 336.81" stroke="black" stroke-linecap="round" stroke-linejoin="round"/>
<path d="M392.618 186.644L366.895 199.751C362.466 202.008 360.705 207.427 362.961 211.856L391.113 267.107C393.37 271.536 398.79 273.297 403.218 271.04L428.942 257.934C433.37 255.677 435.131 250.258 432.875 245.829L404.723 190.577C402.466 186.149 397.047 184.388 392.618 186.644Z" fill="white" stroke="black" stroke-linecap="round" stroke-linejoin="round"/>
<path d="M377.904 194.142L367.247 199.571L403.571 270.861L414.227 265.431L377.904 194.142Z" fill="#B1FF05"/>
<path d="M392.618 186.644L366.895 199.751C362.466 202.008 360.705 207.427 362.961 211.856L391.113 267.107C393.37 271.536 398.79 273.297 403.218 271.04L428.942 257.934C433.37 255.677 435.131 250.258 432.875 245.829L404.723 190.577C402.466 186.149 397.047 184.388 392.618 186.644Z" stroke="black" stroke-linecap="round" stroke-linejoin="round"/>
<path d="M412.22 329.94C410.896 327.748 409.743 325.458 408.77 323.09C407.604 320.276 406.677 317.369 406 314.4C405.91 314 405.83 313.6 405.75 313.21C405.67 312.82 405.63 312.62 405.58 312.32C404.13 304.48 404.33 296.8 403.79 289.05C403.73 288.05 403.65 287.12 403.56 286.15V286.03V285.91V285.98C403.168 281.797 402.378 277.662 401.2 273.63L400.96 272.81L400.78 272.2C400.3 270.55 399.85 269.03 399.44 267.63C399.26 267 399.08 266.39 398.91 265.81C398.2 263.37 397.62 261.38 397.19 259.81C397.19 259.67 397.12 259.54 397.08 259.41C396.61 257.79 396.32 256.74 396.19 256.26L396.11 255.98C395.908 255.325 395.751 254.656 395.64 253.98C395.415 252.728 395.388 251.45 395.56 250.19L395.62 249.87C395.744 249.062 396.055 248.295 396.527 247.629C396.999 246.962 397.62 246.415 398.34 246.03C400.59 244.85 402.6 245.09 405.01 248.03C405.39 248.5 405.78 249.03 406.19 249.66L406.52 250.18C407.13 251.18 407.74 252.18 408.33 253.26C409.21 254.83 410.08 256.49 410.93 258.2C411.28 258.9 411.62 259.6 411.93 260.32C412.58 261.67 413.23 263.06 413.88 264.45C414 264.7 414.12 264.96 414.23 265.21C414.234 265.24 414.234 265.27 414.23 265.3C415.64 268.3 417.05 271.4 418.46 274.37C421.88 281.54 425.46 288.11 429.46 292.01L429.77 292.3C429.916 292.444 430.07 292.581 430.23 292.71L430.57 293.01L430.84 293.23L431.6 293.84L431.7 293.91L431.77 293.97L431.92 294.08C432.07 294.17 432.21 294.27 432.29 294.33" fill="#00684A"/>
<path d="M412.22 329.94C410.896 327.748 409.743 325.458 408.77 323.09V323.09C407.604 320.276 406.677 317.369 406 314.4C405.91 314 405.83 313.6 405.75 313.21C405.67 312.82 405.63 312.62 405.58 312.32C404.13 304.48 404.33 296.8 403.79 289.05C403.73 288.05 403.65 287.12 403.56 286.15V286.03V285.91V285.98C403.168 281.797 402.378 277.662 401.2 273.63L400.96 272.81L400.78 272.2C400.3 270.55 399.85 269.03 399.44 267.63C399.26 267 399.08 266.39 398.91 265.81C398.2 263.37 397.62 261.38 397.19 259.81C397.19 259.67 397.12 259.54 397.08 259.41C396.61 257.79 396.32 256.74 396.19 256.26L396.11 255.98C395.908 255.325 395.751 254.656 395.64 253.98C395.415 252.728 395.388 251.45 395.56 250.19L395.62 249.87C395.744 249.062 396.055 248.295 396.527 247.629C396.999 246.962 397.62 246.415 398.34 246.03C400.59 244.85 402.6 245.09 405.01 248.03C405.39 248.5 405.78 249.03 406.19 249.66L406.52 250.18C407.13 251.18 407.74 252.18 408.33 253.26C409.21 254.83 410.08 256.49 410.93 258.2C411.28 258.9 411.62 259.6 411.93 260.32C412.58 261.67 413.23 263.06 413.88 264.45C414 264.7 414.12 264.96 414.23 265.21C414.234 265.24 414.234 265.27 414.23 265.3C415.64 268.3 417.05 271.4 418.46 274.37C421.88 281.54 425.46 288.11 429.46 292.01L429.77 292.3C429.916 292.444 430.07 292.581 430.23 292.71L430.57 293.01L430.84 293.23L431.6 293.84L431.7 293.91L431.77 293.97L431.92 294.08C432.07 294.17 432.21 294.27 432.29 294.33" stroke="black" stroke-linecap="round" stroke-linejoin="round"/>
</g>
<defs>
<clipPath id="clip0_3294_54643">
<rect width="388" height="388" fill="white" transform="translate(154 40)"/>
</clipPath>
</defs>
</svg>
